<mxfile host="app.diagrams.net" modified="2023-04-07T21:11:51.935Z" agent="Mozilla/5.0 (Windows NT 10.0; Win64; x64) AppleWebKit/537.36 (KHTML, like Gecko) Chrome/111.0.0.0 Safari/537.36" etag="CW8MhxxOQWi4mGkI00Sw" version="21.1.5" type="device">
  <diagram name="Page-1" id="Y_8_Vr0GiHyZkv_sRb4o">
    <mxGraphModel dx="1631" dy="2005" grid="1" gridSize="10" guides="1" tooltips="1" connect="1" arrows="1" fold="1" page="1" pageScale="1" pageWidth="850" pageHeight="1100" math="0" shadow="0">
      <root>
        <mxCell id="0" />
        <mxCell id="1" parent="0" />
        <mxCell id="eBYEJrpwVFoPNCbo_thd-2" value=":Democracia2.0" style="rounded=0;whiteSpace=wrap;html=1;" vertex="1" parent="1">
          <mxGeometry x="-470" y="-780" width="130" height="70" as="geometry" />
        </mxCell>
        <mxCell id="eBYEJrpwVFoPNCbo_thd-4" value="" style="endArrow=none;dashed=1;html=1;rounded=0;entryX=0.542;entryY=1.02;entryDx=0;entryDy=0;entryPerimeter=0;" edge="1" parent="1" target="eBYEJrpwVFoPNCbo_thd-2">
          <mxGeometry width="50" height="50" relative="1" as="geometry">
            <mxPoint x="-400" y="-340" as="sourcePoint" />
            <mxPoint x="-400" y="-700" as="targetPoint" />
          </mxGeometry>
        </mxCell>
        <mxCell id="eBYEJrpwVFoPNCbo_thd-5" value="" style="endArrow=block;html=1;rounded=0;endFill=1;" edge="1" parent="1">
          <mxGeometry x="0.0014" y="10" width="50" height="50" relative="1" as="geometry">
            <mxPoint x="-400" y="-620" as="sourcePoint" />
            <mxPoint x="-400" y="-550" as="targetPoint" />
            <Array as="points">
              <mxPoint x="-150" y="-620" />
              <mxPoint x="-150" y="-550" />
            </Array>
            <mxPoint as="offset" />
          </mxGeometry>
        </mxCell>
        <mxCell id="eBYEJrpwVFoPNCbo_thd-6" value="closePolls(dueDate)" style="text;html=1;align=center;verticalAlign=middle;resizable=0;points=[];autosize=1;strokeColor=none;fillColor=none;" vertex="1" parent="1">
          <mxGeometry x="-335" y="-650" width="130" height="30" as="geometry" />
        </mxCell>
      </root>
    </mxGraphModel>
  </diagram>
</mxfile>
